<svg width="60" height="60" viewBox="0 0 60 60" fill="none" xmlns="http://www.w3.org/2000/svg">
<mask id="mask0_41_870" style="mask-type:alpha" maskUnits="userSpaceOnUse" x="0" y="0" width="60" height="60">
<rect width="60" height="60" rx="8" fill="#FEE1C0"/>
</mask>
<g mask="url(#mask0_41_870)">
<rect width="60" height="60" rx="8" fill="#F4F4F4"/>
</g>
<path fill-rule="evenodd" clip-rule="evenodd" d="M19.1995 24.0352C18.7373 24.0352 18.341 24.3653 18.2575 24.8199L15.0667 42.1922C14.7425 43.9574 16.098 45.5845 17.8927 45.5845H40.3924C42.164 45.5845 43.5136 43.9968 43.2281 42.2483L40.3857 24.8386C40.3101 24.3754 39.9099 24.0352 39.4405 24.0352H19.1995ZM16.3736 24.4739C16.6241 23.1101 17.8129 22.1197 19.1995 22.1197H39.4405C40.8486 22.1197 42.0493 23.1402 42.2762 24.53L45.1186 41.9396C45.5943 44.8538 43.3451 47.5 40.3924 47.5H17.8927C14.9015 47.5 12.6424 44.7882 13.1827 41.8462L16.3736 24.4739Z" fill="#1B4B66"/>
<path fill-rule="evenodd" clip-rule="evenodd" d="M29.5755 15.4155C26.0298 15.4155 22.9431 18.0178 22.1251 21.6408H37.0259C36.2079 18.0178 33.1212 15.4155 29.5755 15.4155ZM38.9794 21.6408C38.1276 17.003 34.2412 13.5 29.5755 13.5C24.9098 13.5 21.0234 17.003 20.1716 21.6408C20.0577 22.2609 19.998 22.9013 19.998 23.5563H39.153C39.153 22.9013 39.0933 22.2609 38.9794 21.6408Z" fill="#1B4B66"/>
<path fill-rule="evenodd" clip-rule="evenodd" d="M20.4883 28.1994C20.5602 27.7322 20.9622 27.3873 21.4349 27.3873H34.8433C35.3723 27.3873 35.8011 27.8161 35.8011 28.3451C35.8011 28.874 35.3723 29.3028 34.8433 29.3028H22.2566L20.466 40.9414C20.3856 41.4642 19.8966 41.8228 19.3738 41.7424C18.851 41.6619 18.4924 41.1729 18.5728 40.6501L20.4883 28.1994Z" fill="#1B4B66"/>
<path fill-rule="evenodd" clip-rule="evenodd" d="M30.5332 41.2747C30.5332 40.7457 30.962 40.3169 31.4909 40.3169H38.1952C38.7241 40.3169 39.1529 40.7457 39.1529 41.2747C39.1529 41.8036 38.7241 42.2324 38.1952 42.2324H31.4909C30.962 42.2324 30.5332 41.8036 30.5332 41.2747Z" fill="#1B4B66"/>
<path d="M17.5 24.5L14 43.5L17 46.5L43 46L44 42.5L41.5 25L39.5 23H19.5L17.5 24.5Z" fill="url(#paint0_linear_41_870)"/>
<path fill-rule="evenodd" clip-rule="evenodd" d="M19.1995 24.0352C18.7373 24.0352 18.341 24.3653 18.2575 24.8199L15.0667 42.1922C14.7425 43.9574 16.098 45.5845 17.8927 45.5845H40.3924C42.164 45.5845 43.5136 43.9968 43.2281 42.2483L40.3857 24.8386C40.3101 24.3754 39.9099 24.0352 39.4405 24.0352H19.1995ZM16.3736 24.4739C16.6241 23.1101 17.8129 22.1197 19.1995 22.1197H39.4405C40.8486 22.1197 42.0493 23.1402 42.2762 24.53L45.1186 41.9396C45.5943 44.8538 43.3451 47.5 40.3924 47.5H17.8927C14.9015 47.5 12.6424 44.7882 13.1827 41.8462L16.3736 24.4739Z" fill="#1B4B66"/>
<path fill-rule="evenodd" clip-rule="evenodd" d="M29.5755 15.4155C26.0298 15.4155 22.9431 18.0178 22.1251 21.6408H37.0259C36.2079 18.0178 33.1212 15.4155 29.5755 15.4155ZM38.9794 21.6408C38.1276 17.003 34.2412 13.5 29.5755 13.5C24.9098 13.5 21.0234 17.003 20.1716 21.6408C20.0577 22.2609 19.998 22.9013 19.998 23.5563H39.153C39.153 22.9013 39.0933 22.2609 38.9794 21.6408Z" fill="#1B4B66"/>
<path fill-rule="evenodd" clip-rule="evenodd" d="M20.4883 28.1994C20.5602 27.7322 20.9622 27.3873 21.4349 27.3873H34.8433C35.3723 27.3873 35.8011 27.8161 35.8011 28.3451C35.8011 28.874 35.3723 29.3028 34.8433 29.3028H22.2566L20.466 40.9414C20.3856 41.4642 19.8966 41.8228 19.3738 41.7424C18.851 41.6619 18.4924 41.1729 18.5728 40.6501L20.4883 28.1994Z" fill="#1B4B66"/>
<path fill-rule="evenodd" clip-rule="evenodd" d="M30.5332 41.2747C30.5332 40.7457 30.962 40.3169 31.4909 40.3169H38.1952C38.7241 40.3169 39.1529 40.7457 39.1529 41.2747C39.1529 41.8036 38.7241 42.2324 38.1952 42.2324H31.4909C30.962 42.2324 30.5332 41.8036 30.5332 41.2747Z" fill="#1B4B66"/>
<defs>
<linearGradient id="paint0_linear_41_870" x1="28.1667" y1="20.3889" x2="30.8267" y2="46.3877" gradientUnits="userSpaceOnUse">
<stop stop-color="white" stop-opacity="0"/>
<stop offset="1" stop-color="#17494D" stop-opacity="0.57"/>
</linearGradient>
</defs>
</svg>
