<svg width="60" height="60" viewBox="0 0 60 60" fill="none" xmlns="http://www.w3.org/2000/svg">
<mask id="mask0_41_857" style="mask-type:alpha" maskUnits="userSpaceOnUse" x="0" y="0" width="60" height="60">
<rect width="60" height="60" rx="8" fill="#FEE1C0"/>
</mask>
<g mask="url(#mask0_41_857)">
<rect width="60" height="60" rx="8" fill="#F4F4F4"/>
</g>
<path fill-rule="evenodd" clip-rule="evenodd" d="M29.1 47.2C35.0647 47.2 39.9 42.3647 39.9 36.4C39.9 30.4353 35.0647 25.6 29.1 25.6C23.1353 25.6 18.3 30.4353 18.3 36.4C18.3 42.3647 23.1353 47.2 29.1 47.2ZM29.1 49C36.0588 49 41.7 43.3588 41.7 36.4C41.7 29.4412 36.0588 23.8 29.1 23.8C22.1412 23.8 16.5 29.4412 16.5 36.4C16.5 43.3588 22.1412 49 29.1 49Z" fill="#1B4B66"/>
<path fill-rule="evenodd" clip-rule="evenodd" d="M24.5245 13.2434C24.6913 13.087 24.9113 13 25.14 13H32.16C32.3887 13 32.6087 13.087 32.7755 13.2434L39.0155 19.0934C39.3776 19.4328 39.3966 20.0013 39.058 20.3641L33.5979 26.2141C33.3449 26.4852 32.9515 26.5733 32.607 26.4361C32.6069 26.4361 32.6068 26.4361 32.6067 26.436C32.6067 26.436 32.6067 26.436 32.6066 26.436C32.6065 26.4359 32.6064 26.4359 32.6063 26.4359C32.6062 26.4358 32.6062 26.4358 32.6061 26.4358C32.606 26.4357 32.6059 26.4357 32.6057 26.4356L32.6056 26.4356L32.5944 26.4313C32.5834 26.427 32.5653 26.4201 32.5405 26.411C32.4908 26.3927 32.4144 26.3653 32.3141 26.3319C32.1135 26.265 31.8189 26.1743 31.4542 26.0831C30.721 25.8998 29.7248 25.72 28.65 25.72C27.5819 25.72 26.8003 25.8977 26.3021 26.0638C26.0524 26.1471 25.8723 26.2279 25.7619 26.2831C25.7066 26.3107 25.6688 26.332 25.6483 26.3439C25.6392 26.3492 25.6335 26.3527 25.6313 26.354C25.2844 26.5802 24.8272 26.5404 24.5245 26.2566L18.2845 20.4066C18.103 20.2364 18 19.9988 18 19.75C18 19.5012 18.103 19.2636 18.2845 19.0934L24.5245 13.2434ZM32.6807 24.5588C32.4664 24.4915 32.1996 24.4141 31.8908 24.3369C31.064 24.1302 29.9152 23.92 28.65 23.92C27.3781 23.92 26.4047 24.1323 25.7329 24.3562C25.5709 24.4102 25.4269 24.4647 25.3006 24.5169L20.2159 19.75L25.4959 14.8H31.8041L37.1293 19.7924L32.6807 24.5588Z" fill="#1B4B66"/>
<path fill-rule="evenodd" clip-rule="evenodd" d="M38.3999 20.65H18.8999V18.85H38.3999V20.65Z" fill="#1B4B66"/>
<path fill-rule="evenodd" clip-rule="evenodd" d="M22.7341 40.6127C23.1413 40.3277 23.7024 40.4267 23.9875 40.8339C24.8944 42.1295 27.6645 44.3482 31.454 42.7692C31.9128 42.5781 32.4398 42.795 32.6309 43.2539C32.8221 43.7127 32.6052 44.2396 32.1463 44.4308C27.2959 46.4518 23.7059 43.5705 22.5129 41.8661C22.2278 41.4589 22.3269 40.8977 22.7341 40.6127Z" fill="#1B4B66"/>
<path fill-rule="evenodd" clip-rule="evenodd" d="M17.3623 37C17.3623 30.5728 22.5726 25.3625 28.9998 25.3625C35.427 25.3625 40.6373 30.5728 40.6373 37C40.6373 43.4272 35.427 48.6375 28.9998 48.6375C22.5726 48.6375 17.3623 43.4272 17.3623 37Z" fill="url(#paint0_linear_41_857)"/>
<path fill-rule="evenodd" clip-rule="evenodd" d="M29.1 47.2C35.0647 47.2 39.9 42.3647 39.9 36.4C39.9 30.4353 35.0647 25.6 29.1 25.6C23.1353 25.6 18.3 30.4353 18.3 36.4C18.3 42.3647 23.1353 47.2 29.1 47.2ZM29.1 49C36.0588 49 41.7 43.3588 41.7 36.4C41.7 29.4412 36.0588 23.8 29.1 23.8C22.1412 23.8 16.5 29.4412 16.5 36.4C16.5 43.3588 22.1412 49 29.1 49Z" fill="#1B4B66"/>
<path fill-rule="evenodd" clip-rule="evenodd" d="M24.5245 13.2434C24.6913 13.087 24.9113 13 25.14 13H32.16C32.3887 13 32.6087 13.087 32.7755 13.2434L39.0155 19.0934C39.3776 19.4328 39.3966 20.0013 39.058 20.3641L33.5979 26.2141C33.3449 26.4852 32.9515 26.5733 32.607 26.4361C32.6069 26.4361 32.6068 26.4361 32.6067 26.436C32.6067 26.436 32.6067 26.436 32.6066 26.436C32.6065 26.4359 32.6064 26.4359 32.6063 26.4359C32.6062 26.4358 32.6062 26.4358 32.6061 26.4358C32.606 26.4357 32.6059 26.4357 32.6057 26.4356L32.6056 26.4356L32.5944 26.4313C32.5834 26.427 32.5653 26.4201 32.5405 26.411C32.4908 26.3927 32.4144 26.3653 32.3141 26.3319C32.1135 26.265 31.8189 26.1743 31.4542 26.0831C30.721 25.8998 29.7248 25.72 28.65 25.72C27.5819 25.72 26.8003 25.8977 26.3021 26.0638C26.0524 26.1471 25.8723 26.2279 25.7619 26.2831C25.7066 26.3107 25.6688 26.332 25.6483 26.3439C25.6392 26.3492 25.6335 26.3527 25.6313 26.354C25.2844 26.5802 24.8272 26.5404 24.5245 26.2566L18.2845 20.4066C18.103 20.2364 18 19.9988 18 19.75C18 19.5012 18.103 19.2636 18.2845 19.0934L24.5245 13.2434ZM32.6807 24.5588C32.4664 24.4915 32.1996 24.4141 31.8908 24.3369C31.064 24.1302 29.9152 23.92 28.65 23.92C27.3781 23.92 26.4047 24.1323 25.7329 24.3562C25.5709 24.4102 25.4269 24.4647 25.3006 24.5169L20.2159 19.75L25.4959 14.8H31.8041L37.1293 19.7924L32.6807 24.5588Z" fill="#1B4B66"/>
<path fill-rule="evenodd" clip-rule="evenodd" d="M38.3999 20.65H18.8999V18.85H38.3999V20.65Z" fill="#1B4B66"/>
<path fill-rule="evenodd" clip-rule="evenodd" d="M22.7341 40.6127C23.1413 40.3277 23.7024 40.4267 23.9875 40.8339C24.8944 42.1295 27.6645 44.3482 31.454 42.7692C31.9128 42.5781 32.4398 42.795 32.6309 43.2539C32.8221 43.7127 32.6052 44.2396 32.1463 44.4308C27.2959 46.4518 23.7059 43.5705 22.5129 41.8661C22.2278 41.4589 22.3269 40.8977 22.7341 40.6127Z" fill="#1B4B66"/>
<defs>
<linearGradient id="paint0_linear_41_857" x1="28.3533" y1="22.7764" x2="31.6947" y2="48.3594" gradientUnits="userSpaceOnUse">
<stop stop-color="white" stop-opacity="0"/>
<stop offset="1" stop-color="#17494D" stop-opacity="0.57"/>
</linearGradient>
</defs>
</svg>
