<svg width="120" height="24" viewBox="0 0 120 24" fill="none" xmlns="http://www.w3.org/2000/svg">
<path d="M12.4135 17.8812L17.1419 20.8769C17.7463 21.2598 18.4967 20.6903 18.3173 19.9847L16.9512 14.6108C16.9127 14.4611 16.9173 14.3036 16.9643 14.1564C17.0114 14.0092 17.0991 13.8783 17.2172 13.7787L21.4573 10.2496C22.0144 9.78588 21.7269 8.86126 21.0111 8.81481L15.4738 8.45544C15.3247 8.44479 15.1816 8.39198 15.0613 8.30317C14.941 8.21437 14.8484 8.09321 14.7943 7.95382L12.7292 2.75323C12.673 2.60528 12.5732 2.4779 12.443 2.38802C12.3127 2.29814 12.1582 2.25 12 2.25C11.8418 2.25 11.6873 2.29814 11.557 2.38802C11.4268 2.4779 11.327 2.60528 11.2708 2.75323L9.20568 7.95382C9.15157 8.09321 9.05897 8.21437 8.93868 8.30317C8.81838 8.39198 8.67533 8.44479 8.52618 8.45544L2.98894 8.81481C2.27315 8.86126 1.9856 9.78588 2.54272 10.2496L6.78278 13.7787C6.90095 13.8783 6.9886 14.0092 7.03566 14.1564C7.08272 14.3036 7.08727 14.4611 7.0488 14.6108L5.78188 19.5945C5.56667 20.4412 6.46715 21.1246 7.19243 20.6651L11.5865 17.8812C11.71 17.8025 11.8535 17.7607 12 17.7607C12.1465 17.7607 12.29 17.8025 12.4135 17.8812V17.8812Z" fill="#FF8C4B" stroke="#FF8C4B" stroke-width="2" stroke-linecap="round" stroke-linejoin="round"/>
<path d="M36.4135 17.8812L41.1419 20.8769C41.7463 21.2598 42.4967 20.6903 42.3173 19.9847L40.9512 14.6108C40.9127 14.4611 40.9173 14.3036 40.9643 14.1564C41.0114 14.0092 41.0991 13.8783 41.2172 13.7787L45.4573 10.2496C46.0144 9.78588 45.7269 8.86126 45.0111 8.81481L39.4738 8.45544C39.3247 8.44479 39.1816 8.39198 39.0613 8.30317C38.941 8.21437 38.8484 8.09321 38.7943 7.95382L36.7292 2.75323C36.673 2.60528 36.5732 2.4779 36.443 2.38802C36.3127 2.29814 36.1582 2.25 36 2.25C35.8418 2.25 35.6873 2.29814 35.557 2.38802C35.4268 2.4779 35.327 2.60528 35.2708 2.75323L33.2057 7.95382C33.1516 8.09321 33.059 8.21437 32.9387 8.30317C32.8184 8.39198 32.6753 8.44479 32.5262 8.45544L26.9889 8.81481C26.2732 8.86126 25.9856 9.78588 26.5427 10.2496L30.7828 13.7787C30.9009 13.8783 30.9886 14.0092 31.0357 14.1564C31.0827 14.3036 31.0873 14.4611 31.0488 14.6108L29.7819 19.5945C29.5667 20.4412 30.4672 21.1246 31.1924 20.6651L35.5865 17.8812C35.71 17.8025 35.8535 17.7607 36 17.7607C36.1465 17.7607 36.29 17.8025 36.4135 17.8812V17.8812Z" fill="#FF8C4B" stroke="#FF8C4B" stroke-width="2" stroke-linecap="round" stroke-linejoin="round"/>
<path d="M60.4135 17.8812L65.1419 20.8769C65.7463 21.2598 66.4967 20.6903 66.3173 19.9847L64.9512 14.6108C64.9127 14.4611 64.9173 14.3036 64.9643 14.1564C65.0114 14.0092 65.0991 13.8783 65.2172 13.7787L69.4573 10.2496C70.0144 9.78588 69.7269 8.86126 69.0111 8.81481L63.4738 8.45544C63.3247 8.44479 63.1816 8.39198 63.0613 8.30317C62.941 8.21437 62.8484 8.09321 62.7943 7.95382L60.7292 2.75323C60.673 2.60528 60.5732 2.4779 60.443 2.38802C60.3127 2.29814 60.1582 2.25 60 2.25C59.8418 2.25 59.6873 2.29814 59.557 2.38802C59.4268 2.4779 59.327 2.60528 59.2708 2.75323L57.2057 7.95382C57.1516 8.09321 57.059 8.21437 56.9387 8.30317C56.8184 8.39198 56.6753 8.44479 56.5262 8.45544L50.9889 8.81481C50.2732 8.86126 49.9856 9.78588 50.5427 10.2496L54.7828 13.7787C54.9009 13.8783 54.9886 14.0092 55.0357 14.1564C55.0827 14.3036 55.0873 14.4611 55.0488 14.6108L53.7819 19.5945C53.5667 20.4412 54.4672 21.1246 55.1924 20.6651L59.5865 17.8812C59.71 17.8025 59.8535 17.7607 60 17.7607C60.1465 17.7607 60.29 17.8025 60.4135 17.8812V17.8812Z" fill="#FF8C4B" stroke="#FF8C4B" stroke-width="2" stroke-linecap="round" stroke-linejoin="round"/>
<path d="M84.4135 17.8812L89.1419 20.8769C89.7463 21.2598 90.4967 20.6903 90.3173 19.9847L88.9512 14.6108C88.9127 14.4611 88.9173 14.3036 88.9643 14.1564C89.0114 14.0092 89.0991 13.8783 89.2172 13.7787L93.4573 10.2496C94.0144 9.78588 93.7269 8.86126 93.0111 8.81481L87.4738 8.45544C87.3247 8.44479 87.1816 8.39198 87.0613 8.30317C86.941 8.21437 86.8484 8.09321 86.7943 7.95382L84.7292 2.75323C84.673 2.60528 84.5732 2.4779 84.443 2.38802C84.3127 2.29814 84.1582 2.25 84 2.25C83.8418 2.25 83.6873 2.29814 83.557 2.38802C83.4268 2.4779 83.327 2.60528 83.2708 2.75323L81.2057 7.95382C81.1516 8.09321 81.059 8.21437 80.9387 8.30317C80.8184 8.39198 80.6753 8.44479 80.5262 8.45544L74.9889 8.81481C74.2732 8.86126 73.9856 9.78588 74.5427 10.2496L78.7828 13.7787C78.9009 13.8783 78.9886 14.0092 79.0357 14.1564C79.0827 14.3036 79.0873 14.4611 79.0488 14.6108L77.7819 19.5945C77.5667 20.4412 78.4672 21.1246 79.1924 20.6651L83.5865 17.8812C83.71 17.8025 83.8535 17.7607 84 17.7607C84.1465 17.7607 84.29 17.8025 84.4135 17.8812V17.8812Z" fill="#FF8C4B" stroke="#FF8C4B" stroke-width="2" stroke-linecap="round" stroke-linejoin="round"/>
<path d="M108.414 17.8812L113.142 20.8769C113.746 21.2598 114.497 20.6903 114.317 19.9847L112.951 14.6108C112.913 14.4611 112.917 14.3036 112.964 14.1564C113.011 14.0092 113.099 13.8783 113.217 13.7787L117.457 10.2496C118.014 9.78588 117.727 8.86126 117.011 8.81481L111.474 8.45544C111.325 8.44479 111.182 8.39198 111.061 8.30317C110.941 8.21437 110.848 8.09321 110.794 7.95382L108.729 2.75323C108.673 2.60528 108.573 2.4779 108.443 2.38802C108.313 2.29814 108.158 2.25 108 2.25C107.842 2.25 107.687 2.29814 107.557 2.38802C107.427 2.4779 107.327 2.60528 107.271 2.75323L105.206 7.95382C105.152 8.09321 105.059 8.21437 104.939 8.30317C104.818 8.39198 104.675 8.44479 104.526 8.45544L98.9889 8.81481C98.2732 8.86126 97.9856 9.78588 98.5427 10.2496L102.783 13.7787C102.901 13.8783 102.989 14.0092 103.036 14.1564C103.083 14.3036 103.087 14.4611 103.049 14.6108L101.782 19.5945C101.567 20.4412 102.467 21.1246 103.192 20.6651L107.586 17.8812C107.71 17.8025 107.854 17.7607 108 17.7607C108.147 17.7607 108.29 17.8025 108.414 17.8812V17.8812Z" fill="#F1F1F1" stroke="#F1F1F1" stroke-width="2" stroke-linecap="round" stroke-linejoin="round"/>
</svg>
