<svg width="60" height="60" viewBox="0 0 60 60" fill="none" xmlns="http://www.w3.org/2000/svg">
<mask id="mask0_41_883" style="mask-type:alpha" maskUnits="userSpaceOnUse" x="0" y="0" width="60" height="60">
<rect width="60" height="60" rx="8" fill="#FEE1C0"/>
</mask>
<g mask="url(#mask0_41_883)">
<rect width="60" height="60" rx="8" fill="#F4F4F4"/>
</g>
<path fill-rule="evenodd" clip-rule="evenodd" d="M26.2415 15.5125C26.1859 15.5125 26.132 15.532 26.0893 15.5677C26.0466 15.6034 26.0178 15.6529 26.0079 15.7076L25.0731 15.5382L26.0079 15.7076L24.9972 21.2822C24.9036 21.7984 24.4093 22.1411 23.893 22.0475C23.3767 21.9539 23.0341 21.4595 23.1277 20.9432L24.1383 15.3687C24.2277 14.876 24.4871 14.4302 24.8715 14.1093C25.2559 13.7883 25.7408 13.6125 26.2415 13.6125H33.7584C34.2592 13.6125 34.744 13.7883 35.1284 14.1093C35.5128 14.4302 35.7723 14.876 35.8616 15.3687L36.8722 20.9433C36.9658 21.4595 36.6232 21.9539 36.1069 22.0475C35.5907 22.1411 35.0963 21.7985 35.0027 21.2822L33.9921 15.7076L34.9268 15.5382L33.9921 15.7076C33.9822 15.6529 33.9533 15.6034 33.9106 15.5677C33.8679 15.532 33.814 15.5125 33.7584 15.5125H26.2415Z" fill="#1B4B66"/>
<path fill-rule="evenodd" clip-rule="evenodd" d="M33.7585 45.1002C33.8141 45.1002 33.868 45.0807 33.9107 45.045C33.9534 45.0093 33.9822 44.9598 33.9921 44.9051L34.9269 45.0745L33.9921 44.9051L35.0028 39.3305C35.0964 38.8143 35.5907 38.4716 36.107 38.5652C36.6233 38.6588 36.9659 39.1532 36.8723 39.6695L35.8617 45.244C35.7723 45.7367 35.5129 46.1825 35.1285 46.5034C34.7441 46.8244 34.2592 47.0002 33.7585 47.0002H26.2416C25.7408 47.0002 25.256 46.8244 24.8716 46.5034C24.4872 46.1825 24.2277 45.7367 24.1384 45.244L23.1278 39.6694C23.0342 39.1532 23.3768 38.6588 23.8931 38.5652C24.4093 38.4716 24.9037 38.8142 24.9973 39.3305L26.0079 44.9051L25.0732 45.0745L26.0079 44.9051C26.0178 44.9598 26.0467 45.0093 26.0894 45.045C26.1321 45.0807 26.186 45.1002 26.2416 45.1002H33.7585Z" fill="#1B4B66"/>
<path fill-rule="evenodd" clip-rule="evenodd" d="M29.9998 20.2625C24.6219 20.2625 20.2623 24.6221 20.2623 30C20.2623 35.3779 24.6219 39.7375 29.9998 39.7375C35.3777 39.7375 39.7373 35.3779 39.7373 30C39.7373 24.6221 35.3777 20.2625 29.9998 20.2625ZM18.3623 30C18.3623 23.5728 23.5726 18.3625 29.9998 18.3625C36.427 18.3625 41.6373 23.5728 41.6373 30C41.6373 36.4272 36.427 41.6375 29.9998 41.6375C23.5726 41.6375 18.3623 36.4272 18.3623 30Z" fill="#1B4B66"/>
<path fill-rule="evenodd" clip-rule="evenodd" d="M29.9998 23.1125C30.5245 23.1125 30.9498 23.5378 30.9498 24.0625V29.05H35.9373C36.462 29.05 36.8873 29.4753 36.8873 30C36.8873 30.5247 36.462 30.95 35.9373 30.95H29.9998C29.4751 30.95 29.0498 30.5247 29.0498 30V24.0625C29.0498 23.5378 29.4751 23.1125 29.9998 23.1125Z" fill="#1B4B66"/>
<path fill-rule="evenodd" clip-rule="evenodd" d="M26.2415 15.5125C26.1859 15.5125 26.132 15.532 26.0893 15.5677C26.0466 15.6034 26.0178 15.6529 26.0079 15.7076L25.0731 15.5382L26.0079 15.7076L24.9972 21.2822C24.9036 21.7984 24.4093 22.1411 23.893 22.0475C23.3767 21.9539 23.0341 21.4595 23.1277 20.9432L24.1383 15.3687C24.2277 14.876 24.4871 14.4302 24.8715 14.1093C25.2559 13.7883 25.7408 13.6125 26.2415 13.6125H33.7584C34.2592 13.6125 34.744 13.7883 35.1284 14.1093C35.5128 14.4302 35.7723 14.876 35.8616 15.3687L36.8722 20.9433C36.9658 21.4595 36.6232 21.9539 36.1069 22.0475C35.5907 22.1411 35.0963 21.7985 35.0027 21.2822L33.9921 15.7076L34.9268 15.5382L33.9921 15.7076C33.9822 15.6529 33.9533 15.6034 33.9106 15.5677C33.8679 15.532 33.814 15.5125 33.7584 15.5125H26.2415Z" fill="#1B4B66"/>
<path fill-rule="evenodd" clip-rule="evenodd" d="M33.7585 45.1002C33.8141 45.1002 33.868 45.0807 33.9107 45.045C33.9534 45.0093 33.9822 44.9598 33.9921 44.9051L34.9269 45.0745L33.9921 44.9051L35.0028 39.3305C35.0964 38.8143 35.5907 38.4716 36.107 38.5652C36.6233 38.6588 36.9659 39.1532 36.8723 39.6695L35.8617 45.244C35.7723 45.7367 35.5129 46.1825 35.1285 46.5034C34.7441 46.8244 34.2592 47.0002 33.7585 47.0002H26.2416C25.7408 47.0002 25.256 46.8244 24.8716 46.5034C24.4872 46.1825 24.2277 45.7367 24.1384 45.244L23.1278 39.6694C23.0342 39.1532 23.3768 38.6588 23.8931 38.5652C24.4093 38.4716 24.9037 38.8142 24.9973 39.3305L26.0079 44.9051L25.0732 45.0745L26.0079 44.9051C26.0178 44.9598 26.0467 45.0093 26.0894 45.045C26.1321 45.0807 26.186 45.1002 26.2416 45.1002H33.7585Z" fill="#1B4B66"/>
<path fill-rule="evenodd" clip-rule="evenodd" d="M18.3623 30C18.3623 23.5728 23.5726 18.3625 29.9998 18.3625C36.427 18.3625 41.6373 23.5728 41.6373 30C41.6373 36.4272 36.427 41.6375 29.9998 41.6375C23.5726 41.6375 18.3623 36.4272 18.3623 30Z" fill="url(#paint0_linear_41_883)"/>
<path fill-rule="evenodd" clip-rule="evenodd" d="M29.9998 20.2625C24.6219 20.2625 20.2623 24.6221 20.2623 30C20.2623 35.3779 24.6219 39.7375 29.9998 39.7375C35.3777 39.7375 39.7373 35.3779 39.7373 30C39.7373 24.6221 35.3777 20.2625 29.9998 20.2625ZM18.3623 30C18.3623 23.5728 23.5726 18.3625 29.9998 18.3625C36.427 18.3625 41.6373 23.5728 41.6373 30C41.6373 36.4272 36.427 41.6375 29.9998 41.6375C23.5726 41.6375 18.3623 36.4272 18.3623 30Z" fill="#1B4B66"/>
<path fill-rule="evenodd" clip-rule="evenodd" d="M29.9998 23.1125C30.5245 23.1125 30.9498 23.5378 30.9498 24.0625V29.05H35.9373C36.462 29.05 36.8873 29.4753 36.8873 30C36.8873 30.5247 36.462 30.95 35.9373 30.95H29.9998C29.4751 30.95 29.0498 30.5247 29.0498 30V24.0625C29.0498 23.5378 29.4751 23.1125 29.9998 23.1125Z" fill="#1B4B66"/>
<defs>
<linearGradient id="paint0_linear_41_883" x1="29.3533" y1="15.7764" x2="32.6947" y2="41.3594" gradientUnits="userSpaceOnUse">
<stop stop-color="white" stop-opacity="0"/>
<stop offset="1" stop-color="#17494D" stop-opacity="0.57"/>
</linearGradient>
</defs>
</svg>
